<svg xmlns="http://www.w3.org/2000/svg" viewBox="0 0 228.571 263.096"><g data-name="Layer 2"><g data-name="ART"><path d="M168.561 47.471l-54.415 55.06a2.627 2.627 0 01-3.99-.298L36.936 1.928a2.627 2.627 0 00-3.979-.309 2.627 2.627 0 00-.33 3.31l70.456 106.128a2.627 2.627 0 002.188 1.173h15.136a2.627 2.627 0 002.014-.939l50.265-59.973a2.627 2.627 0 00.062-3.298l-.243-.313a2.627 2.627 0 00-3.944-.236z" fill="#3e4147"/><path d="M120.407 113.08h-15.136a3.47 3.47 0 01-2.896-1.554L31.92 5.4a3.475 3.475 0 015.703-3.971l73.22 100.305a1.777 1.777 0 001.304.725 1.744 1.744 0 001.397-.523l54.415-55.061a3.477 3.477 0 015.218.313l.242.312a3.495 3.495 0 01-.082 4.363l-50.265 59.974a3.466 3.466 0 01-2.664 1.243zM34.814 1.697a1.78 1.78 0 00-1.48 2.763l70.456 106.126a1.773 1.773 0 001.481.795h15.136a1.773 1.773 0 001.363-.636l50.265-59.974a1.79 1.79 0 00.042-2.233l-.242-.311a1.778 1.778 0 00-2.67-.16l-54.415 55.06a3.476 3.476 0 01-5.28-.395L36.252 2.428a1.775 1.775 0 00-1.299-.724 1.637 1.637 0 00-.138-.006z" fill="#3e4147"/><rect x="14.619" y="242.588" width="19.66" height="19.66" rx="9.83" fill="#3e4147"/><path d="M24.449 263.096a10.678 10.678 0 1110.678-10.679 10.69 10.69 0 01-10.678 10.679zm0-19.66a8.981 8.981 0 108.981 8.981 8.99 8.99 0 00-8.981-8.98z" fill="#3e4147"/><rect x="192.073" y="242.588" width="19.66" height="19.66" rx="9.83" fill="#3e4147"/><path d="M201.903 263.096a10.678 10.678 0 1110.678-10.679 10.69 10.69 0 01-10.678 10.679zm0-19.66a8.981 8.981 0 108.98 8.981 8.99 8.99 0 00-8.98-8.98z" fill="#3e4147"/><rect x="1.25" y="102.008" width="226.071" height="151.604" rx="20.816" fill="#fdbe2a"/><path d="M206.506 254.861H22.066A22.09 22.09 0 010 232.796V122.823a22.09 22.09 0 0122.066-22.065h184.44a22.09 22.09 0 0122.065 22.065v109.973a22.09 22.09 0 01-22.065 22.065zM22.066 103.258A19.588 19.588 0 002.5 122.823v109.973a19.588 19.588 0 0019.566 19.565h184.44a19.588 19.588 0 0019.565-19.565V122.823a19.588 19.588 0 00-19.565-19.565z" fill="#3e4147"/><rect x="10.918" y="110.889" width="164.079" height="132.272" rx="13.149" fill="#fff8e9"/><path d="M161.849 244.411H24.068a14.416 14.416 0 01-14.4-14.4V124.04a14.416 14.416 0 0114.4-14.4h137.78a14.416 14.416 0 0114.4 14.4v105.973a14.416 14.416 0 01-14.4 14.4zM24.068 112.14a11.913 11.913 0 00-11.9 11.899v105.973a11.913 11.913 0 0011.9 11.9h137.78a11.913 11.913 0 0011.9-11.9V124.039a11.913 11.913 0 00-11.9-11.9z" fill="#3e4147"/><rect x="181.912" y="110.889" width="39.111" height="132.272" rx="6.627" fill="#df642f"/><path d="M214.396 244.411H188.54a7.886 7.886 0 01-7.878-7.877V117.517a7.886 7.886 0 017.878-7.877h25.856a7.886 7.886 0 017.877 7.877v119.017a7.886 7.886 0 01-7.877 7.877zM188.54 112.14a5.383 5.383 0 00-5.378 5.377v119.017a5.383 5.383 0 005.378 5.377h25.856a5.383 5.383 0 005.377-5.377V117.517a5.383 5.383 0 00-5.377-5.377z" fill="#3e4147"/><path d="M151.204 232.41c-18.534 2.303-71.563 7.669-115.354.227a8.848 8.848 0 01-7.247-7.224c-2.649-15.436-8.408-57.519-.282-94.754a8.832 8.832 0 017.356-6.847c16.537-2.42 65.242-8.221 115.723-1.492a8.817 8.817 0 017.561 7.621 393.407 393.407 0 01-.071 94.745 8.854 8.854 0 01-7.686 7.725z" fill="#357fc1"/><path d="M87.445 237.712c-17 0-35.036-.992-51.804-3.842a10.116 10.116 0 01-8.27-8.246c-2.786-16.24-8.391-58.026-.271-95.231a10.13 10.13 0 018.396-7.818c18.24-2.669 66.061-8.161 116.07-1.494a10.076 10.076 0 018.635 8.7 396.061 396.061 0 01-.07 95.058 10.095 10.095 0 01-8.773 8.812 538.323 538.323 0 01-63.913 4.06zm13.671-117.306a464.116 464.116 0 00-65.258 4.643 7.62 7.62 0 00-6.316 5.877c-8.026 36.775-2.469 78.18.293 94.276a7.612 7.612 0 006.225 6.203c43.102 7.325 94.774 2.278 114.99-.234l.154 1.24-.154-1.24a7.6 7.6 0 006.6-6.637 393.437 393.437 0 00.071-94.432 7.57 7.57 0 00-6.486-6.542 381.686 381.686 0 00-50.119-3.154z" fill="#3e4147"/><path d="M145.598 210.69c-15.661 1.76-60.472 5.865-97.475.173A7.157 7.157 0 0142 205.337c-2.238-11.806-7.105-43.994-.239-72.475a7.209 7.209 0 016.216-5.236c13.974-1.852 55.13-6.289 97.788-1.142a7.121 7.121 0 016.39 5.83 272.599 272.599 0 01-.06 72.468 7.154 7.154 0 01-6.496 5.908z" fill="#4495d7"/><circle cx="201.992" cy="182.874" r="13.947" fill="#357fc1"/><path d="M201.992 198.071a15.197 15.197 0 1115.197-15.197 15.214 15.214 0 01-15.197 15.197zm0-27.894a12.697 12.697 0 1012.697 12.697 12.712 12.712 0 00-12.697-12.697z" fill="#3e4147"/><rect x="188.045" y="143.676" width="27.894" height="8.398" rx="3.647" fill="#357fc1"/><path d="M212.292 153.324h-20.6a4.903 4.903 0 01-4.897-4.897v-1.104a4.903 4.903 0 014.897-4.897h20.6a4.903 4.903 0 014.897 4.897v1.104a4.903 4.903 0 01-4.897 4.897zm-20.6-8.398a2.4 2.4 0 00-2.397 2.397v1.104a2.4 2.4 0 002.397 2.397h20.6a2.4 2.4 0 002.397-2.397v-1.104a2.4 2.4 0 00-2.397-2.397z" fill="#3e4147"/><rect x="188.045" y="129.729" width="27.894" height="8.398" rx="3.647" fill="#357fc1"/><path d="M212.292 139.377h-20.6a4.903 4.903 0 01-4.897-4.898v-1.102a4.903 4.903 0 014.897-4.898h20.6a4.903 4.903 0 014.897 4.898v1.102a4.903 4.903 0 01-4.897 4.898zm-20.6-8.398a2.4 2.4 0 00-2.397 2.398v1.102a2.4 2.4 0 002.397 2.398h20.6a2.4 2.4 0 002.397-2.398v-1.102a2.4 2.4 0 00-2.397-2.398z" fill="#3e4147"/><ellipse cx="125.508" cy="145.354" rx="17.546" ry="11.426" fill="#70b1de"/></g></g></svg>
